<svg width="507" height="535" viewBox="0 0 507 535" fill="none" xmlns="http://www.w3.org/2000/svg">
<path d="M291.875 529.313C360.577 528.097 466.86 502.077 497.451 435.195C508.138 411.837 507.412 377.497 505.961 308.817C505.537 288.633 504.829 259.211 499.875 222.702C489.595 146.865 482.589 95.2492 456.085 65.1751C389.682 -10.151 149.8 -7.96512 47.3567 127.632C-8.51801 201.601 -17.1169 306.843 33.9808 393.804C90.2448 489.579 199.906 530.935 291.875 529.313Z" fill="url(#paint0_linear_42_3521)" fill-opacity="0.17"/>
<path opacity="0.5" d="M176.478 523.506C215.742 503.141 281.094 466.7 329.502 435.617C377.91 404.535 401.039 380.151 373.07 363.806C341.066 345.317 280.825 366.754 227.038 402.123C168.141 440.976 142.054 462.412 114.354 483.313C96.6039 496.71 106.017 507.964 123.229 518.682C140.709 529.668 154.694 534.759 176.478 523.506Z" fill="url(#paint1_linear_42_3521)"/>
<path d="M211.44 4.39197L468.435 152.166V354.505L211.44 206.731V4.39197Z" fill="#826F8C" fill-opacity="0.9"/>
<path d="M474.189 148.768L468.435 152.165V354.505L474.189 351.108V148.768Z" fill="#446381"/>
<path d="M463.108 155.775V275.947L216.341 133.906V13.9464L463.108 155.775Z" fill="#506898"/>
<path d="M310.743 188.26L371.689 223.292L391.081 303.336L267.271 231.997L310.743 188.26Z" fill="#786D8A"/>
<path d="M237.224 63.6288C237.224 58.3209 240.634 55.7731 244.683 58.1086C245.535 58.7455 246.601 59.3825 247.453 60.2317C249.158 57.6839 252.141 57.047 255.551 58.9578C259.6 61.2933 262.796 66.389 264.288 71.6969C265.566 70.8477 267.271 70.8477 269.189 72.1216C271.959 73.8201 274.517 77.2172 275.795 80.8266C276.648 80.8266 277.5 81.0389 278.565 81.4636C281.336 82.9498 283.68 86.7716 284.319 90.381L237.224 63.6288Z" fill="white"/>
<path d="M447.552 184.863C447.339 178.281 443.503 170.637 438.602 167.877C437.536 167.24 436.471 166.816 435.405 166.816C433.274 161.508 429.865 156.624 425.816 154.289C421.128 151.529 417.079 153.015 415.161 157.474C413.669 154.714 411.538 152.378 409.194 151.104C405.785 149.193 403.014 149.83 401.31 152.59C400.244 151.316 399.179 150.255 397.9 149.618C394.704 147.707 391.933 148.981 391.081 152.378L447.552 184.863Z" fill="white"/>
<path d="M286.237 103.332C286.663 100.148 288.794 98.6615 291.564 100.36C292.843 100.997 293.908 102.271 294.974 103.757C296.039 101.634 298.383 100.997 300.727 102.483C303.711 104.182 306.268 108.216 307.12 112.25C307.76 112.038 308.825 112.25 309.678 112.675C311.595 113.736 313.3 116.496 313.94 119.256L286.237 103.332Z" fill="white"/>
<path d="M374.033 170C374.459 167.028 376.377 165.754 378.934 167.24C380 167.877 381.065 169.151 381.918 170.425C382.983 168.514 384.901 167.877 387.245 169.151C390.015 170.637 392.36 174.459 392.999 178.069C393.638 177.856 394.491 178.069 395.343 178.493C397.261 179.555 398.753 182.103 399.392 184.438L374.033 170Z" fill="white"/>
<path d="M226.356 89.5319C226.783 86.5595 228.701 85.2855 231.258 86.7718C232.323 87.4087 233.389 88.6826 234.241 89.9565C235.307 88.0457 237.224 87.4087 239.569 88.6826C242.339 90.1689 244.683 93.9906 245.322 97.6C245.961 97.3877 246.814 97.6 247.666 98.0247C249.584 99.0862 251.076 101.634 251.715 103.97L226.356 89.5319Z" fill="white"/>
<path d="M357.411 148.344C357.838 145.371 359.756 144.098 362.313 145.584C363.378 146.221 364.444 147.495 365.296 148.769C366.362 146.858 368.28 146.221 370.624 147.495C373.394 148.981 375.738 152.803 376.377 156.412C377.016 156.2 377.869 156.412 378.721 156.837C380.639 157.898 382.131 160.446 382.77 162.782L357.411 148.344Z" fill="white"/>
<path d="M391.933 204.396C392.786 200.999 395.769 203.547 398.326 205.033C396.835 200.362 397.9 195.691 401.523 198.239C401.523 196.116 402.162 193.992 403.867 194.629C404.293 194.629 404.506 194.842 404.932 195.266C404.506 193.355 404.719 191.657 405.572 190.595C407.916 188.26 411.538 192.082 412.604 196.54C415.374 196.116 419.21 197.177 420.915 202.273C425.603 201.424 430.291 212.04 428.16 215.437C431.143 217.772 432.848 223.929 430.291 224.779C435.192 231.573 434.979 240.915 429.652 241.339C430.291 247.921 425.39 250.469 421.128 243.887C420.488 244.1 420.062 244.312 419.423 244.312C418.784 247.709 418.144 251.955 418.144 255.352C417.931 261.51 418.144 269.153 418.144 276.372C418.144 282.529 418.997 291.022 419.21 293.357L408.981 287.413C409.621 285.926 411.112 281.255 411.538 276.584C411.965 271.064 412.178 255.989 410.473 251.955C408.768 248.134 403.867 240.702 402.375 235.182C401.736 233.059 401.31 230.936 401.097 229.237C397.048 226.477 392.999 219.683 395.769 214.8C393.425 212.04 391.294 207.581 391.933 204.396ZM404.293 236.881C406.85 241.552 411.751 249.408 411.751 249.408C411.751 249.408 411.751 243.887 412.178 239.216C411.965 238.792 411.965 238.367 411.751 238.155C410.047 238.367 408.129 236.668 406.424 233.908C405.785 233.059 405.145 231.997 404.719 230.936C404.08 231.148 403.228 231.148 402.588 230.724C402.801 232.422 403.228 234.758 404.293 236.881Z" fill="#EFC8C5"/>
<path d="M293.908 138.365C293.056 133.906 290.073 133.057 287.515 131.783C289.007 128.81 287.942 122.865 284.319 121.379C284.319 119.256 283.68 116.496 281.975 115.01C281.549 114.797 281.336 114.585 280.909 114.585C281.336 113.311 281.123 111.188 280.27 109.065C277.926 104.181 274.303 103.757 273.238 106.942C270.468 103.332 266.632 99.9351 264.927 103.12C260.239 96.7503 255.551 102.058 257.682 108.003C254.698 106.729 252.994 111.188 255.551 115.01C250.65 116.071 250.863 125.626 256.19 132.42C255.551 138.365 260.452 146.433 264.714 144.947C265.353 145.796 265.78 146.645 266.419 147.494C267.058 151.528 267.697 156.624 267.697 160.021C267.91 166.391 267.697 173.822 267.697 181.041C267.697 187.198 266.845 194.629 266.632 196.752L276.861 202.697C276.221 200.574 274.73 193.992 274.303 188.896C273.877 182.739 273.664 167.452 275.369 165.754C277.074 164.055 281.975 161.932 283.467 158.323C284.106 156.836 284.532 155.35 284.745 154.076C288.794 155.987 292.843 153.652 290.073 146.008C292.417 144.522 294.761 142.611 293.908 138.365ZM281.549 156.836C278.992 158.747 274.09 160.658 274.09 160.658C274.09 160.658 274.09 155.138 273.664 150.042C273.877 149.83 273.877 149.618 274.09 149.405C275.795 151.741 277.713 152.165 279.418 151.316C280.057 151.104 280.696 150.892 281.123 150.255C281.762 151.104 282.614 151.953 283.254 152.59C283.04 154.289 282.614 155.987 281.549 156.836Z" fill="#EFC8C5"/>
<path d="M397.047 274.036C396.834 272.975 397.047 271.913 397.687 271.276C398.752 270.215 400.244 270.852 401.522 272.125C401.736 270.639 402.162 269.365 403.227 269.578C404.08 269.79 404.932 270.639 405.784 271.701C405.571 270.427 405.784 269.365 406.424 268.728C407.276 267.454 408.981 267.879 410.473 268.941C411.964 270.002 413.03 272.125 413.669 274.249C414.095 274.461 414.521 274.886 415.161 275.31C416.226 275.947 417.079 276.584 417.931 277.646C419.21 279.344 419.636 281.255 419.423 282.954C421.127 284.015 423.045 285.714 423.898 288.474C424.75 291.659 423.472 292.72 421.767 292.933C422.193 294.207 422.406 295.48 421.98 296.542C421.341 299.09 418.996 298.241 417.079 296.967C415.587 298.878 412.39 297.179 410.259 294.207C408.555 295.056 404.932 292.933 403.44 289.323C402.162 290.597 400.244 290.173 398.326 287.837C396.195 285.289 396.195 282.529 397.047 280.831C396.195 279.981 395.556 278.495 395.343 277.221C394.49 274.673 395.556 273.612 397.047 274.036Z" fill="#F5E2E1"/>
<path d="M260.452 186.561C260.239 185.5 260.452 184.438 261.092 183.801C262.157 182.74 263.649 183.376 264.927 184.65C265.14 183.164 265.567 181.89 266.632 182.103C267.484 182.315 268.337 183.164 269.189 184.226C268.976 182.952 269.189 181.89 269.828 181.253C270.681 179.979 272.386 180.404 273.877 181.466C275.369 182.527 276.435 184.65 277.074 186.774C277.5 186.986 277.926 187.411 278.565 187.835C279.631 188.472 280.483 189.109 281.336 190.171C282.614 191.869 283.041 193.78 282.827 195.479C284.532 196.54 286.45 198.239 287.302 200.999C288.155 204.184 286.876 205.245 285.172 205.458C285.598 206.731 285.811 208.005 285.385 209.067C284.745 211.615 282.401 210.766 280.483 209.492C278.992 211.402 275.795 209.704 273.664 206.731C271.959 207.581 268.337 205.458 266.845 201.848C265.567 203.122 263.649 202.697 261.731 200.362C259.6 197.814 259.6 195.054 260.452 193.355C259.6 192.506 258.961 191.02 258.747 189.746C257.895 187.198 259.174 185.924 260.452 186.561Z" fill="#F5E2E1"/>
<path d="M235.946 185.075C235.733 184.438 235.946 183.589 236.372 183.376C237.011 182.739 237.864 183.164 238.716 184.013C238.716 183.164 239.142 182.315 239.782 182.527C240.208 182.527 240.847 183.164 241.273 183.801C241.06 182.952 241.273 182.315 241.699 181.89C242.339 181.041 243.191 181.253 244.257 182.102C245.109 182.739 245.961 184.013 246.388 185.287C246.601 185.499 247.027 185.712 247.453 185.924C248.092 186.349 248.519 186.561 249.158 187.41C250.01 188.472 250.223 189.746 250.01 190.807C251.076 191.444 252.354 192.506 252.78 194.204C253.42 196.328 252.567 196.965 251.502 196.965C251.715 197.602 251.928 198.451 251.715 199.088C251.289 200.574 249.797 200.149 248.519 199.3C247.666 200.362 245.535 199.3 244.257 197.602C243.191 198.026 240.847 196.752 239.995 194.417C239.142 195.266 237.864 195.054 236.798 193.568C235.52 192.081 235.52 190.383 235.946 189.109C235.52 188.472 235.093 187.623 234.88 186.986C234.454 185.499 235.093 184.65 235.946 185.075Z" fill="#F5E2E1"/>
<path d="M387.245 249.62C387.032 248.983 387.245 248.133 387.672 247.921C388.311 247.284 389.163 247.709 390.016 248.558C390.016 247.709 390.442 246.859 391.081 247.072C391.507 247.072 392.147 247.709 392.573 248.346C392.36 247.496 392.573 246.859 392.999 246.435C393.638 245.586 394.491 245.798 395.556 246.647C396.409 247.284 397.261 248.558 397.687 249.832C397.9 250.044 398.326 250.257 398.753 250.469C399.392 250.893 399.818 251.106 400.457 251.955C401.31 253.017 401.523 254.291 401.31 255.352C402.375 255.989 403.654 257.051 404.08 258.749C404.719 260.872 403.867 261.509 402.802 261.509C403.015 262.146 403.228 262.996 403.015 263.633C402.588 265.119 401.097 264.694 399.818 263.845C398.966 264.907 396.835 263.845 395.556 262.146C394.491 262.571 392.147 261.297 391.294 258.962C390.442 259.811 389.163 259.599 388.098 258.112C386.819 256.626 386.819 254.928 387.245 253.654C386.819 253.017 386.393 252.167 386.18 251.53C385.541 249.832 386.18 249.195 387.245 249.62Z" fill="#F5E2E1"/>
<path d="M227.209 157.898C226.996 157.049 227.209 156.2 227.635 155.775C228.488 154.926 229.553 155.563 230.619 156.624C230.832 155.563 231.045 154.501 232.11 154.501C232.75 154.501 233.602 155.35 234.028 156.2C233.815 155.138 234.028 154.289 234.454 153.652C235.094 152.803 236.372 152.803 237.651 153.864C238.716 154.714 239.782 156.412 240.208 158.111C240.634 158.323 240.847 158.535 241.487 158.96C242.339 159.385 242.978 159.809 243.617 160.871C244.47 162.357 244.896 163.843 244.896 165.117C246.388 165.966 247.879 167.24 248.519 169.576C249.158 172.124 248.093 172.973 246.814 173.185C247.24 174.035 247.24 175.096 247.027 175.945C246.388 177.856 244.683 177.432 242.978 176.158C241.7 177.644 239.142 176.37 237.651 174.035C236.372 174.671 233.389 172.973 232.323 170C231.258 171.062 229.766 170.637 228.061 168.939C226.357 166.816 226.357 164.692 226.996 163.206C226.357 162.569 225.717 161.295 225.504 160.446C225.291 158.323 226.143 157.474 227.209 157.898Z" fill="#F5E2E1"/>
<path d="M430.504 275.947C430.291 275.098 430.504 274.249 430.93 273.824C431.783 272.975 432.848 273.612 433.914 274.673C434.127 273.612 434.34 272.55 435.405 272.55C436.045 272.55 436.897 273.399 437.323 274.249C437.11 273.187 437.323 272.338 437.749 271.701C438.389 270.851 439.667 270.851 440.946 271.913C442.011 272.762 443.077 274.461 443.503 276.159C443.929 276.372 444.142 276.584 444.782 277.009C445.634 277.433 446.273 277.858 446.913 278.92C447.765 280.406 448.191 281.892 448.191 283.166C449.683 284.015 451.175 285.289 451.814 287.625C452.453 290.172 451.388 291.022 450.109 291.234C450.535 292.083 450.535 293.145 450.322 293.994C449.683 295.905 447.978 295.48 446.273 294.207C444.995 295.693 442.437 294.419 440.946 292.083C439.667 292.72 436.684 291.022 435.618 288.049C434.553 289.111 433.061 288.686 431.356 286.988C429.652 284.864 429.652 282.741 430.291 281.255C429.652 280.618 429.012 279.344 428.799 278.495C428.586 276.372 429.439 275.522 430.504 275.947Z" fill="#F5E2E1"/>
<path d="M337.38 217.135L341.855 205.882L343.773 206.944L341.642 219.471C340.364 218.834 338.872 217.984 337.38 217.135Z" fill="white"/>
<path d="M331.627 231.148L336.315 219.471C337.807 220.32 339.511 221.169 341.216 222.019L338.872 235.182C336.528 233.908 334.184 232.422 331.627 231.148Z" fill="white"/>
<path d="M325.234 246.648L330.774 233.271C333.331 234.758 335.889 236.244 338.446 237.73L335.249 252.805C332.053 250.682 328.643 248.558 325.234 246.648Z" fill="white"/>
<path d="M334.823 256.414L332.053 269.365L318.841 261.722L323.955 249.62C327.578 251.743 331.2 254.078 334.823 256.414Z" fill="white"/>
<path d="M474.189 148.769L468.435 152.166L211.44 4.39209L217.193 0.994995L474.189 148.769Z" fill="#826F8C"/>
<path d="M209.517 219.735C215.052 219.735 219.357 222.493 219.357 225.556C219.357 228.926 215.052 231.377 209.517 231.377C203.983 231.377 199.678 228.62 199.678 225.556C199.678 222.493 204.29 219.735 209.517 219.735Z" fill="#002F68"/>
<path d="M209.825 219.735C213.822 219.735 217.205 221.574 217.205 223.718C217.205 225.863 213.822 227.701 209.825 227.701C205.828 227.701 202.445 225.863 202.445 223.718C202.445 221.574 205.828 219.735 209.825 219.735Z" fill="#DF8083"/>
<path d="M209.518 229.846C209.518 229.846 207.673 235.054 207.673 241.487C207.365 247.921 207.98 258.338 203.983 262.933C199.985 267.835 196.295 261.708 196.295 254.968C195.988 248.227 199.985 225.863 199.985 225.863L209.518 229.846Z" fill="#002F68"/>
<path d="M208.595 241.488C208.595 241.488 207.365 239.956 205.52 240.569C204.29 240.875 201.831 242.407 200.908 242.407C199.986 242.407 197.833 240.569 197.833 240.569L198.756 235.054C198.756 235.054 193.221 237.199 192.298 242.1C191.068 247.002 188.916 247.921 183.996 249.76C179.076 251.598 173.849 254.968 173.849 254.968L181.536 267.222C181.536 267.222 193.836 256.193 195.066 254.968C196.296 253.742 200.601 249.453 201.523 248.534C202.138 247.615 204.598 245.164 205.52 244.551C206.135 243.326 208.595 241.488 208.595 241.488Z" fill="#FFC5B3"/>
<path d="M207.365 431.74C207.365 431.74 192.298 459.926 188.916 471.874C187.071 478.308 182.766 502.204 182.766 502.204C182.766 502.204 185.533 498.528 189.838 497.302C192.606 496.69 196.603 496.077 199.063 499.447C203.368 504.962 203.983 508.944 197.218 515.072C194.451 517.829 189.223 522.118 184.918 526.101C179.691 530.696 173.541 535.292 168.314 534.985C162.779 534.679 159.089 531.922 159.397 525.488C159.704 521.812 162.472 515.991 162.472 513.846C163.087 508.025 164.316 471.874 166.776 449.509C168.006 438.174 171.081 431.74 171.081 431.74H207.365Z" fill="#FFC5B3"/>
<path d="M144.33 396.202C144.33 396.202 129.263 424.388 125.881 436.336C124.036 442.77 117.578 469.73 117.578 469.73C117.578 469.73 126.188 462.683 134.49 465.747C142.177 468.504 138.18 474.019 131.723 479.84C128.955 482.597 124.958 485.354 120.653 489.031C115.426 493.626 113.888 495.158 110.814 496.077C105.586 497.609 99.1289 496.996 99.4364 490.563C99.7438 486.886 100.051 480.453 100.359 478.308C100.974 472.487 102.204 436.336 104.664 413.971C105.894 402.636 108.969 396.202 108.969 396.202H144.33Z" fill="#FFC5B3"/>
<path d="M171.389 364.034C171.389 364.034 193.835 395.283 200.6 408.457C202.753 412.746 208.595 422.243 208.595 426.839C208.595 432.047 206.75 438.174 206.75 438.174C206.75 438.174 193.221 449.203 182.151 447.365C169.236 445.221 165.239 437.868 165.239 437.868C165.239 437.868 147.097 415.809 139.41 408.457C131.723 401.104 118.808 385.786 114.503 374.756C111.121 366.485 108.661 345.345 114.503 338.605C120.345 331.865 171.389 364.034 171.389 364.034Z" fill="url(#paint2_linear_42_3521)"/>
<path d="M143.407 349.022L141.87 394.058C141.87 394.058 140.332 410.295 139.41 416.422C134.182 421.631 128.34 424.082 122.805 423.469C110.813 421.631 102.203 413.665 102.203 413.665C102.203 413.665 89.9039 366.791 92.3639 356.375C94.8238 345.958 103.126 334.316 103.126 334.316L143.407 349.022Z" fill="url(#paint3_linear_42_3521)"/>
<path d="M168.006 247.921C168.006 247.921 179.383 250.985 183.073 258.031C187.378 265.997 191.683 279.477 187.686 292.957C183.688 306.437 174.156 329.108 172.311 333.397C170.774 337.686 177.846 345.039 176.308 348.103C174.463 351.166 170.774 355.149 172.926 356.375C175.078 357.6 176.308 364.34 176.308 364.34C176.308 364.34 147.097 377.514 128.34 370.161C109.891 362.808 94.5161 347.796 94.5161 347.796C94.5161 347.796 96.6685 338.912 100.358 334.01C104.048 329.108 100.973 320.53 104.356 318.079C107.738 315.628 114.195 314.402 113.58 310.42C112.965 306.437 110.198 267.835 119.423 255.58C128.647 243.326 145.559 241.794 145.559 241.794L168.006 247.921Z" fill="#446381"/>
<path d="M152.939 187.873C142.485 189.405 134.49 194.92 134.49 201.353C134.49 201.66 134.49 201.66 134.49 201.966C134.49 203.191 135.105 204.417 135.72 205.642C136.642 204.111 137.872 202.579 139.717 201.353C143.1 198.902 147.712 197.064 152.939 196.145V187.873Z" fill="#0E58C4"/>
<path d="M152.939 188.18C142.485 189.712 134.797 195.226 134.797 201.66C134.797 201.966 134.797 201.966 134.797 202.273C134.797 203.498 135.412 204.724 136.027 205.949C136.95 204.417 138.18 202.885 140.025 201.66C143.1 199.209 147.712 197.371 152.939 196.758V188.18Z" fill="#37A0F5"/>
<path d="M169.544 192.469L197.218 208.4C198.755 209.319 200.293 208.4 200.293 206.255V195.226C200.293 193.082 199.063 190.631 197.218 189.712L169.544 173.781C168.006 172.862 166.469 173.781 166.469 175.925V186.954C166.776 189.099 168.006 191.55 169.544 192.469Z" fill="#786D8A"/>
<path d="M195.988 210.238L199.063 208.4L198.14 206.255L194.45 207.787C194.45 208.094 195.988 210.238 195.988 210.238Z" fill="#7A6D8B"/>
<path d="M164.624 175.313L167.699 173.475L168.929 174.7L166.161 177.457L164.624 175.313Z" fill="#806E8B"/>
<path d="M166.469 194.307L194.143 210.238C195.681 211.157 197.218 210.238 197.218 208.093V197.064C197.218 194.92 195.988 192.469 194.143 191.55L166.469 175.619C164.932 174.7 163.394 175.619 163.394 177.763V188.792C163.702 190.937 164.932 193.388 166.469 194.307Z" fill="url(#paint4_linear_42_3521)"/>
<path d="M164.624 175.312L153.862 181.439L185.226 216.365L195.988 210.238L164.624 175.312Z" fill="#A676D4"/>
<path d="M194.143 209.32L189.838 211.77C188.916 212.077 188.301 211.77 188.301 210.545V205.03C188.301 204.111 188.916 202.579 189.838 202.273L194.143 199.822C195.066 199.516 195.681 199.822 195.681 201.048V206.562C195.681 207.788 195.066 209.013 194.143 209.32Z" fill="#41A0E2"/>
<path d="M195.065 199.823L194.758 199.515L194.45 199.823L195.065 200.13V199.823Z" fill="#41A0E2"/>
<path d="M188.608 211.771H189.223L188.608 211.464V211.771Z" fill="#41A0E2"/>
<path d="M193.835 209.32L189.53 211.77C188.608 212.077 187.993 211.77 187.993 210.545V205.03C187.993 204.111 188.608 202.579 189.53 202.273L193.835 199.822C194.758 199.516 195.373 199.822 195.373 201.048V206.562C195.373 207.481 194.758 208.707 193.835 209.32Z" fill="white"/>
<path d="M193.528 204.724C193.528 205.949 192.606 207.481 191.683 208.094C190.761 208.707 189.838 208.094 189.838 206.868C189.838 205.643 190.761 204.111 191.683 203.498C192.913 202.579 193.528 203.192 193.528 204.724Z" fill="#786D8A"/>
<path d="M156.014 200.434L183.689 216.365C185.226 217.285 186.763 216.365 186.763 214.221V203.192C186.763 201.047 185.534 198.596 183.689 197.677L156.014 181.746C154.477 180.827 152.94 181.746 152.94 183.891V194.92C152.94 197.064 154.17 199.515 156.014 200.434Z" fill="#002F68"/>
<path d="M180.613 219.123L185.533 216.366C185.533 216.366 183.688 213.302 183.381 213.302L179.383 214.221L180.613 219.123Z" fill="#002F68"/>
<path d="M149.25 183.891L153.862 181.44L155.707 183.278L153.555 186.342L149.25 183.891Z" fill="#002F68"/>
<path d="M152.939 194.92V185.422C152.017 185.116 151.094 185.116 150.479 185.116C149.557 185.116 148.942 186.035 148.942 187.567V197.983C148.942 199.822 149.557 201.66 151.094 202.885C151.402 202.885 152.017 203.498 152.632 203.498C154.784 204.417 160.627 206.562 165.239 209.319C168.314 211.157 174.771 216.059 178.154 218.51C179.384 219.429 180.613 218.51 180.613 216.672V215.446L155.707 201.047C154.169 199.515 152.939 197.064 152.939 194.92Z" fill="#002F68"/>
<path d="M178.769 201.353C176.924 198.902 172.312 194.001 165.547 190.324C161.242 187.873 156.015 186.341 152.94 185.422V194.92C152.94 197.064 154.17 199.515 156.015 200.434L180.922 214.833V205.949C180.922 203.804 179.692 202.579 178.769 201.353Z" fill="#002F68"/>
<path d="M160.626 190.938C160.626 190.325 160.626 189.712 160.934 189.406C158.782 188.487 157.244 190.019 157.244 192.776C157.244 195.84 159.089 199.516 161.549 200.741C163.394 201.967 164.931 201.048 165.546 199.21C165.239 199.21 165.239 198.903 164.931 198.903C162.471 197.678 160.626 194.001 160.626 190.938Z" fill="#002F68"/>
<path d="M161.241 189.405C160.934 189.405 160.934 189.099 160.626 189.099C160.626 189.712 160.319 190.018 160.319 190.631C160.319 193.694 162.164 197.371 164.624 198.596C164.931 198.596 164.931 198.903 165.239 198.903C165.239 198.29 165.546 197.983 165.546 197.371C165.546 194.307 163.701 190.631 161.241 189.405Z" fill="#41A0E2"/>
<path d="M173.541 198.29C173.541 197.678 173.541 197.065 173.849 196.759C171.696 195.84 170.159 197.371 170.159 200.129C170.159 203.192 172.004 206.869 174.464 208.094C176.309 209.32 177.846 208.401 178.461 206.562C178.154 206.562 178.154 206.256 177.846 206.256C175.386 205.031 173.541 201.354 173.541 198.29Z" fill="#002F68"/>
<path d="M174.156 196.758C173.849 196.758 173.849 196.452 173.541 196.452C173.541 197.065 173.234 197.371 173.234 197.984C173.234 201.048 175.079 204.724 177.539 205.949C177.846 205.949 177.846 206.256 178.154 206.256C178.154 205.643 178.461 205.337 178.461 204.724C178.461 201.967 176.616 198.29 174.156 196.758Z" fill="#41A0E2"/>
<path d="M176.001 192.162L165.854 186.035L167.084 185.422L177.231 191.243L176.001 192.162Z" fill="#002F68"/>
<path d="M168.006 190.63C162.164 186.341 150.479 187.873 145.56 198.29C142.792 204.11 146.79 219.735 147.405 230.764C148.02 239.649 144.945 244.857 144.945 244.857C144.945 244.857 144.945 244.857 152.632 247.921C160.319 250.984 168.314 247.921 168.314 247.921L168.006 234.441C168.006 234.441 176.309 233.215 177.539 231.99C180.921 228.926 182.766 219.429 181.228 207.174C178.769 189.099 170.159 192.162 168.006 190.63Z" fill="#FFC5B3"/>
<path d="M208.287 235.36C208.287 235.36 208.903 235.973 209.518 236.892C210.133 237.811 209.825 238.73 209.21 238.73C208.903 239.036 208.595 239.036 208.595 239.036C208.595 239.036 209.21 240.262 209.825 241.181C210.132 242.1 208.902 242.713 208.595 242.713C208.288 242.713 209.518 243.632 209.518 244.551C209.518 245.47 207.673 245.164 207.673 245.164C207.673 245.164 207.058 237.811 208.287 235.36Z" fill="#FFC5B3"/>
<path d="M243.649 238.424C249.184 238.424 253.488 241.181 253.488 244.245C253.488 247.615 249.184 250.066 243.649 250.066C238.114 250.066 233.809 247.308 233.809 244.245C233.809 240.875 238.114 238.424 243.649 238.424Z" fill="#002F68"/>
<path d="M243.956 238.424C247.953 238.424 251.336 240.262 251.336 242.406C251.336 244.551 247.953 246.389 243.956 246.389C239.959 246.389 236.576 244.551 236.576 242.406C236.576 239.956 239.959 238.424 243.956 238.424Z" fill="#DD8084"/>
<path d="M243.648 248.228C243.648 248.228 241.804 253.436 241.804 259.869C241.496 266.303 242.111 276.72 238.114 281.315C234.116 286.217 230.426 280.09 230.426 273.349C230.119 266.609 234.116 244.245 234.116 244.245L243.648 248.228Z" fill="#002F68"/>
<path d="M177.846 254.661C184.303 255.274 196.91 280.089 202.753 292.344C207.058 288.361 215.667 281.009 225.507 274.575C228.274 272.737 226.122 260.788 231.657 257.418C231.964 260.788 235.039 260.788 236.884 260.482C240.574 260.176 241.804 259.257 241.804 256.806C242.727 256.499 243.956 256.499 245.186 257.725C246.416 257.418 248.876 259.257 248.261 261.095C250.721 262.933 250.106 267.528 248.569 269.673C245.186 274.269 238.422 279.17 234.424 284.379C230.734 289.28 211.67 314.709 198.448 318.692C197.525 318.385 193.836 318.385 191.376 315.934C182.766 307.356 169.851 285.604 169.236 272.737C168.621 262.32 173.234 254.048 177.846 254.661Z" fill="#FFC5B3"/>
<path d="M175.386 212.076C176.308 209.013 178.461 201.966 178.768 199.209C179.383 195.839 179.691 190.937 175.078 186.342C170.466 181.746 154.784 180.214 149.249 183.278C143.715 186.648 131.415 192.469 135.72 212.076C139.102 227.701 142.485 229.539 147.097 233.216C151.402 236.586 158.474 237.198 158.474 237.198C158.474 237.198 162.471 234.135 163.394 228.314C163.701 226.476 163.394 220.655 163.394 220.655C163.394 220.655 159.089 212.383 162.471 209.626C165.854 206.562 169.544 211.464 170.159 213.608C172.926 220.655 171.696 233.828 171.696 233.828C171.696 233.828 176.001 236.586 179.998 235.36C182.151 234.748 180.306 225.863 180.306 225.863C180.306 225.863 176.001 223.718 175.386 212.076Z" fill="#002F68"/>
<path d="M184.61 204.724L182.766 205.643V216.672L184.61 215.753V204.724Z" fill="#EB8382"/>
<path d="M182.766 205.643L182.458 205.337V216.059L182.766 216.672V205.643Z" fill="#C37A87"/>
<path d="M182.458 205.337L182.766 205.643L184.611 204.724L183.996 204.418L182.458 205.337Z" fill="white"/>
<path d="M183.689 205.949C182.766 206.562 180.921 208.4 180.306 209.013C176.001 212.689 168.314 215.14 160.012 215.14C151.402 215.14 144.022 212.689 139.718 209.013C138.488 207.787 137.258 206.562 136.643 205.336C136.028 204.111 135.72 201.966 135.413 200.741L135.105 202.885L135.413 209.013C135.413 209.319 135.413 209.319 135.413 209.625C135.413 217.284 146.482 223.412 160.012 223.412C169.852 223.412 178.461 220.042 182.459 215.446L184.304 205.949H183.689Z" fill="#C37A87"/>
<path d="M183.996 205.949C183.381 206.562 181.229 208.706 180.306 209.319C175.694 212.995 168.314 215.446 159.397 215.446C150.787 215.446 143.1 212.995 138.487 209.319C136.95 208.093 136.028 206.868 135.105 205.642C134.49 204.417 134.183 203.192 133.875 201.966V209.319C133.875 209.625 133.875 209.625 133.875 209.932C133.875 217.591 145.252 224.024 159.089 224.024C167.699 224.024 175.386 221.573 179.999 217.897C180.614 217.284 182.766 215.446 183.381 214.833V205.949H183.996Z" fill="url(#paint5_linear_42_3521)"/>
<path d="M163.086 179.602C160.011 177.458 156.014 177.458 151.709 180.215C144.637 184.198 137.257 194.921 135.72 206.256C137.257 210.545 142.792 212.383 143.714 211.771C144.944 200.741 151.402 190.325 159.396 185.423C159.396 185.423 159.704 185.423 159.704 185.117C161.856 183.891 164.009 183.279 165.854 183.279C166.776 183.279 167.699 183.279 168.314 183.279C169.236 183.279 169.851 183.585 169.851 183.585L163.086 179.602Z" fill="#C37A87"/>
<path d="M163.394 179.295C159.704 177.457 156.014 177.15 151.402 179.601C144.33 183.584 136.95 194.307 135.412 205.642C136.642 210.238 141.87 211.77 143.1 212.382C144.637 200.434 151.402 189.711 159.397 184.81C159.397 184.81 159.704 184.81 159.704 184.503C161.857 183.278 164.009 182.665 165.854 182.665C167.391 182.665 168.929 182.971 170.159 183.584L163.394 179.295Z" fill="url(#paint6_linear_42_3521)"/>
<path d="M148.019 378.126C149.249 381.19 151.402 387.624 153.554 390.381C156.629 394.364 149.249 395.283 144.33 396.202C139.102 396.815 130.492 390.687 127.418 385.479C124.65 380.271 123.728 372.612 123.728 372.305C131.415 377.207 139.102 380.271 148.019 378.126Z" fill="url(#paint7_linear_42_3521)"/>
<path d="M111.121 370.467C111.428 372.305 112.043 375.675 112.965 379.045C114.503 384.254 111.428 388.236 106.816 384.56C102.203 381.19 97.591 375.369 96.361 370.467C95.4386 367.097 94.8236 360.663 94.5161 358.213C98.821 363.421 104.356 367.403 111.121 370.467Z" fill="url(#paint8_linear_42_3521)"/>
<defs>
<linearGradient id="paint0_linear_42_3521" x1="253.458" y1="529.359" x2="253.458" y2="15.4241" gradientUnits="userSpaceOnUse">
<stop stop-color="#EB8382"/>
<stop offset="1" stop-color="#EB8382" stop-opacity="0"/>
</linearGradient>
<linearGradient id="paint1_linear_42_3521" x1="310.067" y1="327.504" x2="180.888" y2="552.07" gradientUnits="userSpaceOnUse">
<stop stop-color="#DFB8BF"/>
<stop offset="0.9617" stop-color="#EB8382"/>
</linearGradient>
<linearGradient id="paint2_linear_42_3521" x1="121.83" y1="361.854" x2="187.007" y2="364.693" gradientUnits="userSpaceOnUse">
<stop stop-color="#4499D9"/>
<stop offset="1" stop-color="#6E6CC1"/>
</linearGradient>
<linearGradient id="paint3_linear_42_3521" x1="97.7462" y1="353.951" x2="132.084" y2="354.92" gradientUnits="userSpaceOnUse">
<stop stop-color="#4499D9"/>
<stop offset="1" stop-color="#6E6CC1"/>
</linearGradient>
<linearGradient id="paint4_linear_42_3521" x1="180.306" y1="175.264" x2="180.306" y2="210.593" gradientUnits="userSpaceOnUse">
<stop stop-color="#6379E3"/>
<stop offset="1" stop-color="#D574C9"/>
</linearGradient>
<linearGradient id="paint5_linear_42_3521" x1="158.936" y1="201.966" x2="158.936" y2="224.024" gradientUnits="userSpaceOnUse">
<stop stop-color="#EB8382"/>
<stop offset="1" stop-color="#EB8382" stop-opacity="0"/>
</linearGradient>
<linearGradient id="paint6_linear_42_3521" x1="152.786" y1="177.84" x2="152.786" y2="212.382" gradientUnits="userSpaceOnUse">
<stop stop-color="#EB8382"/>
<stop offset="1" stop-color="#EB8382" stop-opacity="0"/>
</linearGradient>
<linearGradient id="paint7_linear_42_3521" x1="127.122" y1="377.572" x2="147.482" y2="378.846" gradientUnits="userSpaceOnUse">
<stop stop-color="#4499D9"/>
<stop offset="1" stop-color="#6E6CC1"/>
</linearGradient>
<linearGradient id="paint8_linear_42_3521" x1="96.6105" y1="364.324" x2="109.207" y2="364.743" gradientUnits="userSpaceOnUse">
<stop stop-color="#4499D9"/>
<stop offset="1" stop-color="#6E6CC1"/>
</linearGradient>
</defs>
</svg>
